<?xml version="1.0" encoding="UTF-8"?><svg id="Layer_2" xmlns="http://www.w3.org/2000/svg" width="606.049" height="152.174" viewBox="0 0 606.049 152.174"><g id="Layer_1-2"><path d="M501.036,65.013l-22.102,85.759c-2.902,2.217-8.086,1.42-11.864.229l-22.417-85.466-.413,86.122-29.961-.12.032-146.514,37.21.124,21.456,70.275,21.411-70.48,37.303.115.041,146.593-30.378-.039-.317-86.599Z"/><path d="M169.209,104.084l-26.298-.151-.318,47.875-31.699-.02-.122-123.825,24.545-22.888,66.418-.141.153,146.709-32.47.104-.21-47.663ZM169.327,74.488l-.232-40.833-22.349-.198c-2.424-.022-3.992,1.601-3.982,4.032l.145,37.459,26.419-.46Z"/><path d="M367.086,104.05l-26.473-.048-.333,47.792-31.701-.211-.17-123.837,24.637-22.754,66.516-.065-.065,146.574-32.206.269-.205-47.72ZM367.154,74.964l-.147-41.383c-8.679.058-16.714-.776-24.873.417-2.069,1.052-1.792,5.213-1.762,7.375.156,11.179.621,21.6-.075,33.321l26.857.269Z"/><polygon points="95.908 68.514 95.992 151.942 63.26 151.72 63.029 96.428 32.761 96.558 32.8 151.672 .295 151.736 0 69.806 .048 5.047 32.462 5.116 32.905 69.415 62.775 5.162 95.831 5.211 66.551 68.233 95.908 68.514"/><path d="M293.81,123.434c.861,9.595.489,18.459.148,28.376l-77.296.012.012-146.64,32.292-.307.313,118.391,44.53.168Z"/><path d="M605.747,112.424l-42.97.223c-2.463-2.102-6.596-5.013-6.948-8.291-.97-9.031-.348-17.636-.06-26.839l41.478.123c13.312,8.094,7.198,16.814,8.5,34.785ZM596.021,100.87c.333-4.217.237-7.24-.16-11.042l-30.779-.295c-.443,3.905-.236,7.086-.008,11.293l30.947.043Z"/><path d="M580.514.688c6.046-1.084,12.309-.713,18.086.094,2.356.329,6.268,4.623,6.67,7.012.93,5.524.868,11.729.156,17.348-.35,2.762-4.794,7.737-7.601,7.964-11.98.966-23.003.239-34.919.253-2.427.003-6.389-2.8-6.964-5.01-1.389-5.336.057-10.612-.566-15.845-.533-4.483,1.053-6.902,3.516-9.524,2.845-3.029,6.211-3.731,10.802-2.186.268,3.16.607,6.3.045,9.653-.299,1.781-3.448,1.043-4.486,1.855-1.414,2.117-.995,6.254-.08,8.672,3.202,1.073,6.875.346,10.213.187.908-4.254-2.067-19.182,5.129-20.473ZM596.088,20.878c.055-3.539.244-5.853-.107-8.686-3.92-.314-7.531-.376-11.438-.056-.457,3.124-.249,5.702-.098,9.013,3.857.361,7.744.703,11.642-.271Z"/><path d="M588.284,71.345c-5.915-5.858-10.041-12.959-14.974-19.287-2.167-.875-6.048-1.009-8.021-.149-1.049,2.4-.303,5.527-.2,8.104l4.581.685c1.493,3.327,1.089,7.014.153,10.663-2.519-.144-5.259.933-7.502-.563-10.835-7.229-5.727-15.403-6.952-31.129,7.17-.115,14.605-1.056,21.389.336,4.08,2.317,16.382,25.564,19.061,19.607l.734-19.406c2.123-1.607,5.992-1.052,9.091-.221l.215,31.626c-5.704.201-11.443.232-17.574-.265Z"/><path d="M588.269,151.393l-14.849-19.667c-1.288-1.706-7.066-2.085-8.104-.226-1.159,2.075-1.083,7.057.505,7.598l3.588,1.221c1.697.578,1.26,8.78.584,9.631-3.152,3.968-13.491-1.455-14.18-7.496-.903-7.913-.201-15.062-.383-23.385,7.333.228,14.453-1.036,21.192.382,1.969-.358,18.719,27.446,19.132,19.145l.95-19.065c2.519-1.284,6.31-1.018,9.015.04l.11,31.04-17.56.781Z"/></g></svg>