<?xml version="1.0" encoding="UTF-8"?><svg id="Layer_2" xmlns="http://www.w3.org/2000/svg" width="607.876" height="1049.176" viewBox="0 0 607.876 1049.176"><g id="Layer_1-2"><path d="M501.036,962.016l-22.102,85.759c-2.902,2.217-8.086,1.42-11.864.229l-22.417-85.466-.413,86.122-29.961-.12.032-146.514,37.21.124,21.456,70.275,21.411-70.48,37.303.115.041,146.593-30.378-.039-.317-86.599Z"/><path d="M169.209,1001.086l-26.298-.151-.318,47.875-31.699-.02-.122-123.825,24.545-22.888,66.418-.141.153,146.709-32.47.104-.21-47.663ZM169.327,971.49l-.232-40.833-22.349-.198c-2.424-.022-3.992,1.601-3.982,4.032l.145,37.459,26.419-.46Z"/><path d="M367.086,1001.053l-26.473-.048-.333,47.792-31.701-.211-.17-123.837,24.637-22.754,66.516-.065-.065,146.574-32.206.269-.205-47.72ZM367.154,971.967l-.147-41.383c-8.679.058-16.714-.776-24.873.417-2.069,1.052-1.792,5.213-1.762,7.375.156,11.179.621,21.6-.075,33.321l26.857.269Z"/><polygon points="95.908 965.516 95.992 1048.944 63.26 1048.722 63.029 993.431 32.761 993.56 32.8 1048.674 .295 1048.739 0 966.808 .048 902.049 32.462 902.119 32.905 966.417 62.775 902.165 95.831 902.214 66.551 965.236 95.908 965.516"/><path d="M293.81,1020.437c.861,9.595.489,18.459.148,28.376l-77.296.012.012-146.64,32.292-.307.313,118.391,44.53.168Z"/><path d="M605.747,1009.427l-42.97.223c-2.463-2.102-6.596-5.013-6.948-8.291-.97-9.031-.348-17.636-.06-26.839l41.478.123c13.312,8.094,7.198,16.814,8.5,34.785ZM596.021,997.872c.333-4.217.237-7.24-.16-11.042l-30.779-.295c-.443,3.905-.236,7.086-.008,11.293l30.947.043Z"/><path d="M580.514,897.69c6.046-1.084,12.309-.713,18.086.094,2.356.329,6.268,4.623,6.67,7.012.93,5.524.868,11.729.156,17.348-.35,2.762-4.794,7.737-7.601,7.964-11.98.966-23.003.239-34.919.253-2.427.003-6.389-2.8-6.964-5.01-1.389-5.336.057-10.612-.566-15.845-.533-4.483,1.053-6.902,3.516-9.524,2.845-3.029,6.211-3.731,10.802-2.186.268,3.16.607,6.3.045,9.653-.299,1.781-3.448,1.043-4.486,1.855-1.414,2.117-.995,6.254-.08,8.672,3.202,1.073,6.875.346,10.213.187.908-4.254-2.067-19.182,5.129-20.473ZM596.088,917.881c.055-3.539.244-5.853-.107-8.686-3.92-.314-7.531-.376-11.438-.056-.457,3.124-.249,5.702-.098,9.013,3.857.361,7.744.703,11.642-.271Z"/><path d="M588.284,968.347c-5.915-5.858-10.041-12.959-14.974-19.287-2.167-.875-6.048-1.009-8.021-.149-1.049,2.4-.303,5.527-.2,8.104l4.581.685c1.493,3.327,1.089,7.014.153,10.663-2.519-.144-5.259.933-7.502-.563-10.835-7.229-5.727-15.403-6.952-31.129,7.17-.115,14.605-1.056,21.389.336,4.08,2.317,16.382,25.564,19.061,19.607l.734-19.406c2.123-1.607,5.992-1.052,9.091-.221l.215,31.626c-5.704.201-11.443.232-17.574-.265Z"/><path d="M588.269,1048.396l-14.849-19.667c-1.288-1.706-7.066-2.085-8.104-.226-1.159,2.075-1.083,7.057.505,7.598l3.588,1.221c1.697.578,1.26,8.78.584,9.631-3.152,3.968-13.491-1.455-14.18-7.496-.903-7.913-.201-15.062-.383-23.385,7.333.228,14.453-1.036,21.192.382,1.969-.358,18.719,27.446,19.132,19.145l.95-19.065c2.519-1.284,6.31-1.018,9.015.04l.11,31.04-17.56.781Z"/><path d="M510.464,558.7l-.028-300.074-123.59.024.078,166.039-53.058.087-.093-330.674-87.764-.4-.178-49.431,314.048.014.088,49.389.161,333.689-.019,131.246-49.646.092ZM510.486,208.778l.017-114.735-123.606-.091.072,114.799,123.517.026Z"/><path d="M336.895,467.083l139.437-.062.563,142.935,83.266.229.228,190.731,41.745.076-.165-794.898L6.233,6.194l.054,446.043c-.335,2.488-1.361,3.531-3.017,3.534-1.394.002-3.008-.94-3.008-3.552L.196,4.709C.195,1.477,1.925.083,5.074.083L602.518,0c3.32,0,5.357,1.475,5.357,4.915l-.007,843.812-93.972-.015c-2.714,0-3.737-1.683-3.466-4.389l-.018-183.288-87.462-.273-.249-139.782-34.915-.017.033,327.62-53.98-.174-.05-376.578c-.193-2.401.514-4.747,3.105-4.748Z"/><path d="M172.806,756.294l-54.562-.157-.036-236.008-31.452-.153c-2.479-.012-4.142-.922-4.695-3.55l.487-50.347,213.988.002-.124,381.632-49.292-.051.021-185.572-74.334.068v94.138ZM247.11,610.332l-.003-90.354-74.313-.104-.027,90.212,74.343.246Z"/><path d="M274.305,208.909l.215,207.767c.003,2.811,1.035,5.696-.788,8.109l-51.303-.175-.108-165.978-120.094.055.009,166.163-54.834-.181.02-380.341,54.624-.026.191,164.447,71.831.069.141-114.847,52.154.174.126,114.467,47.816.298Z"/><polygon points="198.633 799.469 198.982 847.782 .194 847.671 .166 466.526 51.403 466.125 51.49 799.415 198.633 799.469"/></g></svg>